{
	"asset":{
		"generator":"Khronos glTF Blender I/O v4.0.44",
		"version":"2.0"
	},
	"scene":0,
	"scenes":[
		{
			"name":"Scene",
			"nodes":[
				0
			]
		}
	],
	"nodes":[
		{
			"mesh":0,
			"name":"Knight",
			"translation":[
				0,
				-0.47999998927116394,
				-0.7888345718383789
			]
		}
	],
	"materials":[
		{
			"doubleSided":true,
			"name":"Material.003",
			"pbrMetallicRoughness":{
				"baseColorTexture":{
					"index":0
				},
				"metallicFactor":0,
				"roughnessFactor":0.5
			}
		}
	],
	"meshes":[
		{
			"name":"Cylinder.003",
			"primitives":[
				{
					"attributes":{
						"POSITION":0,
						"NORMAL":1,
						"TEXCOORD_0":2
					},
					"indices":3,
					"material":0
				}
			]
		}
	],
	"textures":[
		{
			"sampler":0,
			"source":0
		}
	],
	"images":[
		{
			"mimeType":"image/jpeg",
			"name":"marble_0008_color_1k.jpg",
			"uri":"marble_0008_color_1k_jpg.jpg"
		}
	],
	"accessors":[
		{
			"bufferView":0,
			"componentType":5126,
			"count":838,
			"max":[
				0.3731401562690735,
				1.457686185836792,
				0.3731401562690735
			],
			"min":[
				-0.3731401562690735,
				-0.010000022128224373,
				-0.3731401562690735
			],
			"type":"VEC3"
		},
		{
			"bufferView":1,
			"componentType":5126,
			"count":838,
			"type":"VEC3"
		},
		{
			"bufferView":2,
			"componentType":5126,
			"count":838,
			"type":"VEC2"
		},
		{
			"bufferView":3,
			"componentType":5123,
			"count":1386,
			"type":"SCALAR"
		}
	],
	"bufferViews":[
		{
			"buffer":0,
			"byteLength":10056,
			"byteOffset":0,
			"target":34962
		},
		{
			"buffer":0,
			"byteLength":10056,
			"byteOffset":10056,
			"target":34962
		},
		{
			"buffer":0,
			"byteLength":6704,
			"byteOffset":20112,
			"target":34962
		},
		{
			"buffer":0,
			"byteLength":2772,
			"byteOffset":26816,
			"target":34963
		}
	],
	"samplers":[
		{
			"magFilter":9729,
			"minFilter":9987
		}
	],
	"buffers":[
		{
			"byteLength":29588,
			"uri":"Knight.bin"
		}
	]
}
