{
	"asset":{
		"generator":"Khronos glTF Blender I/O v4.0.44",
		"version":"2.0"
	},
	"scene":0,
	"scenes":[
		{
			"name":"Scene",
			"nodes":[
				0
			]
		}
	],
	"nodes":[
		{
			"mesh":0,
			"name":"Queen",
			"translation":[
				0.002176642417907715,
				-0.513025164604187,
				-2.6188063621520996
			]
		}
	],
	"materials":[
		{
			"doubleSided":true,
			"name":"Material.003",
			"pbrMetallicRoughness":{
				"baseColorTexture":{
					"index":0
				},
				"metallicFactor":0,
				"roughnessFactor":0.5
			}
		}
	],
	"meshes":[
		{
			"name":"Cylinder.005",
			"primitives":[
				{
					"attributes":{
						"POSITION":0,
						"NORMAL":1,
						"TEXCOORD_0":2
					},
					"indices":3,
					"material":0
				}
			]
		}
	],
	"textures":[
		{
			"sampler":0,
			"source":0
		}
	],
	"images":[
		{
			"mimeType":"image/jpeg",
			"name":"marble_0008_color_1k.jpg",
			"uri":"marble_0008_color_1k_jpg.jpg"
		}
	],
	"accessors":[
		{
			"bufferView":0,
			"componentType":5126,
			"count":1688,
			"max":[
				0.42540106177330017,
				1.8738964796066284,
				0.4254007637500763
			],
			"min":[
				-0.42540106177330017,
				0,
				-0.42540135979652405
			],
			"type":"VEC3"
		},
		{
			"bufferView":1,
			"componentType":5126,
			"count":1688,
			"type":"VEC3"
		},
		{
			"bufferView":2,
			"componentType":5126,
			"count":1688,
			"type":"VEC2"
		},
		{
			"bufferView":3,
			"componentType":5123,
			"count":2820,
			"type":"SCALAR"
		}
	],
	"bufferViews":[
		{
			"buffer":0,
			"byteLength":20256,
			"byteOffset":0,
			"target":34962
		},
		{
			"buffer":0,
			"byteLength":20256,
			"byteOffset":20256,
			"target":34962
		},
		{
			"buffer":0,
			"byteLength":13504,
			"byteOffset":40512,
			"target":34962
		},
		{
			"buffer":0,
			"byteLength":5640,
			"byteOffset":54016,
			"target":34963
		}
	],
	"samplers":[
		{
			"magFilter":9729,
			"minFilter":9987
		}
	],
	"buffers":[
		{
			"byteLength":59656,
			"uri":"Queen.bin"
		}
	]
}
